<?xml version="1.0" encoding="UTF-8"?>
<svg version="1.1" xmlns="http://www.w3.org/2000/svg" width="852" height="876">
<path d="M0 0 C281.16 0 562.32 0 852 0 C852 289.08 852 578.16 852 876 C570.84 876 289.68 876 0 876 C0 586.92 0 297.84 0 0 Z " fill="#191919" transform="translate(0,0)"/>
<path d="M0 0 C6.16413755 9.24620632 3.77518172 27.15232628 1.9375 37.75 C-3.32532065 60.56383103 -17.58546968 81.99618219 -37.38891602 94.57519531 C-52.43866978 103.76664285 -68.14734276 108.59003631 -85.8125 108.4375 C-87.04355469 108.42992676 -88.27460938 108.42235352 -89.54296875 108.41455078 C-103.59166873 108.16023367 -114.68306825 104.88096746 -127 98 C-122.92668956 92.22119779 -118.36527301 87.04756791 -113.57421875 81.85546875 C-111.12160841 79.13489492 -108.79823079 76.35143324 -106.5 73.5 C-102.59809025 68.66246358 -98.48591413 64.06531798 -94.26171875 59.5078125 C-91.93935033 57.11803063 -91.93935033 57.11803063 -90.52563477 54.3737793 C-86.56312616 50.64951915 -82.56726913 51.37751131 -77.328125 51.51171875 C-76.29057068 51.51879349 -75.25301636 51.52586823 -74.184021 51.53315735 C-70.87194552 51.56113359 -67.56156401 51.62388071 -64.25 51.6875 C-62.00393067 51.71257857 -59.75783483 51.73539251 -57.51171875 51.75585938 C-52.00723508 51.8109706 -46.50373855 51.89462939 -41 52 C-40.69667755 51.3763858 -40.3933551 50.75277161 -40.08084106 50.11026001 C-38.98605468 47.97277282 -37.76801192 46.31034456 -36.2421875 44.4609375 C-35.70335937 43.80351562 -35.16453125 43.14609375 -34.609375 42.46875 C-34.03703125 41.7778125 -33.4646875 41.086875 -32.875 40.375 C-31.68461697 38.92470801 -30.49451167 37.47418802 -29.3046875 36.0234375 C-28.73073242 35.32573242 -28.15677734 34.62802734 -27.56542969 33.90917969 C-25.69006406 31.62200576 -23.84091434 29.31496953 -22 27 C-18.46154024 22.56372209 -14.88994197 18.15485034 -11.3125 13.75 C-10.76529297 13.07582031 -10.21808594 12.40164063 -9.65429688 11.70703125 C-6.46333501 7.78148742 -3.24689973 3.87941267 0 0 Z " fill="#FCFCFA" transform="translate(522,357)"/>
<path d="M0 0 C1.16422454 0.00092179 2.32844908 0.00184359 3.52795315 0.00279331 C4.49703669 0.00151167 4.49703669 0.00151167 5.48569769 0.00020415 C7.66610578 -0.00145241 9.84643816 0.00407354 12.02683926 0.00952244 C13.58361719 0.0098043 15.14039526 0.0096466 16.69717312 0.00907993 C20.93665966 0.00879191 25.17611816 0.01468937 29.41559815 0.02165389 C33.84122181 0.02788668 38.26684604 0.02849117 42.69247341 0.0296793 C51.0789474 0.03279284 59.46540841 0.04100653 67.85187668 0.05102879 C77.3970611 0.06218923 86.94224614 0.0677002 96.48743546 0.07272422 C116.1281001 0.08318912 135.76875304 0.100789 155.40940762 0.12304783 C153.99779048 3.03461724 152.51271988 5.39509408 150.43284512 7.88086033 C149.84849697 8.58388279 149.26414883 9.28690525 148.66209316 10.01123142 C147.73263882 11.11845554 147.73263882 11.11845554 146.78440762 12.24804783 C145.50654727 13.78407654 144.22920022 15.32053243 142.95237637 16.85742283 C142.33797695 17.59541111 141.72357754 18.33339939 141.09055996 19.09375095 C138.43931017 22.29403969 135.85399359 25.54521954 133.26878262 28.79882908 C130.47471915 32.29140841 127.62736331 35.73985387 124.78050137 39.18945408 C122.44426984 41.89871054 122.44426984 41.89871054 121.20127773 44.34738255 C119.50101178 47.15868829 117.98360694 49.06170203 115.40940762 51.12304783 C110.15167327 52.38847359 104.99317222 52.17442428 99.63206387 52.00195408 C98.09510953 51.98514827 96.55810667 51.9723464 95.02108669 51.9633646 C90.99367364 51.92915164 86.96922569 51.84089031 82.94297695 51.74102879 C78.82737751 51.6486245 74.71129433 51.60778582 70.59495449 51.56250095 C62.53175123 51.46624658 54.47094918 51.31284086 46.40940762 51.12304783 C47.36596082 49.83382083 48.32441524 48.54600431 49.28367519 47.25879002 C49.81721111 46.54148716 50.35074703 45.8241843 50.90045071 45.085145 C52.49776134 43.00816145 54.18991196 41.1689132 56.09690762 39.37304783 C58.62968406 36.98806269 58.62968406 36.98806269 60.39866543 34.03003025 C63.27351503 31.30353071 65.50610439 31.75230404 69.35375881 31.85084629 C70.75995731 31.9101759 70.75995731 31.9101759 72.19456387 31.97070408 C74.18996879 32.00008556 76.18541621 32.02668803 78.18089199 32.0507822 C81.32077951 32.10830723 84.45582084 32.18489993 87.59373379 32.31128025 C90.62933162 32.42386984 93.65711714 32.45303987 96.69456387 32.47070408 C97.61785992 32.52847523 98.54115597 32.58624638 99.49243069 32.64576817 C102.66387729 32.74553318 102.66387729 32.74553318 107.40940762 31.12304783 C110.70940762 26.83304783 114.00940762 22.54304783 117.40940762 18.12304783 C76.15940762 17.79304783 34.90940762 17.46304783 -7.59059238 17.12304783 C-6.92377987 13.12217276 -6.25098069 9.63402729 -5.09059238 5.81054783 C-4.83277988 4.94816502 -4.57496738 4.0857822 -4.30934238 3.19726658 C-3.2777778 0.22030573 -3.23855241 0.1538246 0 0 Z " fill="#F9F9F7" transform="translate(357.5905923843384,341.8769521713257)"/>
<path d="M0 0 C1.58748047 0.57814453 1.58748047 0.57814453 3.20703125 1.16796875 C18.60833837 7.15413718 33.31101443 17.4354202 43 31 C43 31.66 43 32.32 43 33 C-4.52 33 -52.04 33 -101 33 C-86.76577868 14.02103823 -69.98023362 2.90424138 -47 -3 C-46.39953857 -3.176521 -45.79907715 -3.35304199 -45.18041992 -3.53491211 C-31.07011572 -6.54466796 -13.40989866 -5.16541893 0 0 Z " fill="#FDFDFB" transform="translate(465,293)"/>
<path d="M0 0 C4.37405178 -0.14987526 8.74669028 -0.25791696 13.12255859 -0.32958984 C14.60654781 -0.35950768 16.09036414 -0.40025936 17.57373047 -0.45263672 C25.9941911 -0.74221426 32.83159898 -0.63534211 40.10400391 4.21240234 C43.20016441 7.13154826 44.83444679 9.83516164 45.43359375 14.05078125 C45.44312314 22.00782226 45.02364173 27.85328217 39.33984375 33.7109375 C29.39555403 42.0829268 17.24375808 41.38755155 5 41 C4.86722656 41.99902344 4.73445313 42.99804688 4.59765625 44.02734375 C4.42105469 45.31769531 4.24445313 46.60804688 4.0625 47.9375 C3.88847656 49.22527344 3.71445312 50.51304687 3.53515625 51.83984375 C3 55 3 55 2 56 C-0.18639453 56.07258946 -2.37500389 56.08373783 -4.5625 56.0625 C-6.35880859 56.04896484 -6.35880859 56.04896484 -8.19140625 56.03515625 C-9.11824219 56.02355469 -10.04507812 56.01195312 -11 56 C-10.29564021 47.4029511 -8.40664873 39.09423583 -6.5625 30.6875 C-5.93526746 27.8171629 -5.31134375 24.94614041 -4.69140625 22.07421875 C-4.54200592 21.38359344 -4.39260559 20.69296814 -4.23867798 19.98141479 C-3.12410867 14.7570996 -2.20730023 9.51650868 -1.40991211 4.23364258 C-1 2 -1 2 0 0 Z " fill="#F9F9F8" transform="translate(428,512)"/>
<path d="M0 0 C0.94101562 0.10441406 1.88203125 0.20882813 2.8515625 0.31640625 C4.70957026 7.64710396 6.56022795 14.9796286 8.40576172 22.31347656 C9.03459869 24.80869648 9.66512366 27.30349163 10.29736328 29.79785156 C11.20528043 33.38105991 12.10713725 36.9657467 13.0078125 40.55078125 C13.29217163 41.66757263 13.57653076 42.78436401 13.86950684 43.93499756 C14.12977661 44.97577454 14.39004639 46.01655151 14.65820312 47.08886719 C14.88914673 48.00375916 15.12009033 48.91865112 15.35803223 49.86126709 C15.8515625 52.31640625 15.8515625 52.31640625 15.8515625 56.31640625 C11.5615625 56.31640625 7.2715625 56.31640625 2.8515625 56.31640625 C1.50007709 52.0085465 0.8515625 48.89683033 0.8515625 44.31640625 C-8.0584375 44.31640625 -16.9684375 44.31640625 -26.1484375 44.31640625 C-27.55234953 47.8239969 -27.55234953 47.8239969 -28.9453125 51.3359375 C-30.15240364 53.60665402 -31.02149151 54.82543817 -33.1484375 56.31640625 C-37.86755608 56.9270527 -42.41666169 56.71979174 -47.1484375 56.31640625 C-46.75914062 55.70796875 -46.36984375 55.09953125 -45.96875 54.47265625 C-43.26457501 50.23570004 -40.56598001 45.99642451 -37.9140625 41.7265625 C-31.63772881 31.62106552 -25.32094805 21.52502233 -18.64648438 11.67626953 C-17.09123693 9.33269021 -17.09123693 9.33269021 -15.91601562 6.71826172 C-12.1113311 -0.69276571 -7.98013917 -0.52044386 0 0 Z " fill="#FAFAF8" transform="translate(569.1484375,511.68359375)"/>
<path d="M0 0 C4.62 0 9.24 0 14 0 C13.35668611 3.43798914 12.710462 6.87538667 12.0625 10.3125 C11.88009766 11.28896484 11.69769531 12.26542969 11.50976562 13.27148438 C11.33251953 14.20927734 11.15527344 15.14707031 10.97265625 16.11328125 C10.81031494 16.97735596 10.64797363 17.84143066 10.48071289 18.73168945 C10 21 10 21 9 24 C9.41507813 23.63390625 9.83015625 23.2678125 10.2578125 22.890625 C14.8527439 18.85323758 19.48196255 14.85684929 24.125 10.875 C25.00309326 10.12138184 25.00309326 10.12138184 25.89892578 9.35253906 C27.04554941 8.37027235 28.19719097 7.39383007 29.35400391 6.42358398 C31.00533289 5.02976444 31.00533289 5.02976444 32.47021484 3.53149414 C35.25381214 0.85816175 37.30056045 -0.31197363 41.0859375 -0.48828125 C42.51644898 -0.45547135 43.94657704 -0.39644891 45.375 -0.3125 C46.47908203 -0.27866211 46.47908203 -0.27866211 47.60546875 -0.24414062 C49.40453842 -0.18572927 51.20254753 -0.09606337 53 0 C48.97003588 4.08400578 44.82049112 8.02423569 40.625 11.9375 C39.99078125 12.53240234 39.3565625 13.12730469 38.703125 13.74023438 C35.55391719 16.68056616 32.37945167 19.59105274 29.1484375 22.44140625 C28.59075684 22.93455322 28.03307617 23.4277002 27.45849609 23.93579102 C26 25 26 25 24 25 C26.22168523 28.48843892 28.44546136 31.97553492 30.67114258 35.46142578 C31.42724579 36.646284 32.1827871 37.83150099 32.93774414 39.01708984 C34.02601233 40.72589329 35.11632693 42.43337575 36.20703125 44.140625 C36.8616333 45.16704102 37.51623535 46.19345703 38.19067383 47.25097656 C39.92380914 49.96122925 39.92380914 49.96122925 41.73706055 52.24121094 C43 54 43 54 43 56 C37.88711146 57.20927239 32.93790961 58.10750352 28 56 C22.45834223 50.88745289 18.27317487 43.7537986 15 37 C15 36.34 15 35.68 15 35 C10.08659394 37.73997067 6.65548207 40.14482389 4.734375 45.58203125 C4.02180509 49.02961215 3.49786685 52.51493206 3 56 C-1.62 56 -6.24 56 -11 56 C-9.51360434 45.61857691 -7.56077714 35.37166207 -5.48608398 25.09423828 C-4.93167147 22.34610895 -4.38252962 19.59696211 -3.83398438 16.84765625 C-3.48207734 15.09368848 -3.12987484 13.33977995 -2.77734375 11.5859375 C-2.61378891 10.76725189 -2.45023407 9.94856628 -2.28172302 9.10507202 C-1.6533561 6.00222331 -1.00221039 3.00663117 0 0 Z " fill="#F9F9F7" transform="translate(602,512)"/>
<path d="M0 0 C14.19 0 28.38 0 43 0 C42 9 42 9 41 10 C38.78144736 10.08783542 36.56011504 10.10694609 34.33984375 10.09765625 C33.34314415 10.09553383 33.34314415 10.09553383 32.3263092 10.09336853 C30.19666101 10.08775518 28.06711661 10.07520054 25.9375 10.0625 C24.49674631 10.05748671 23.05599097 10.05292351 21.61523438 10.04882812 C18.07678898 10.03778145 14.53840461 10.02050792 11 10 C10.90912109 10.90492188 10.90912109 10.90492188 10.81640625 11.828125 C10.73261719 12.62734375 10.64882813 13.4265625 10.5625 14.25 C10.48128906 15.03890625 10.40007812 15.8278125 10.31640625 16.640625 C10 19 10 19 9 23 C17.58 23 26.16 23 35 23 C34 32 34 32 33 33 C31.07521187 33.15806531 29.1450079 33.251135 27.21484375 33.31640625 C26.04501953 33.35830078 24.87519531 33.40019531 23.66992188 33.44335938 C22.43822266 33.48267578 21.20652344 33.52199219 19.9375 33.5625 C18.08415039 33.62727539 18.08415039 33.62727539 16.19335938 33.69335938 C13.12905159 33.79984111 10.06454115 33.90046065 7 34 C6.01 37.96 5.02 41.92 4 46 C14.23 46 24.46 46 35 46 C34.34 49.3 33.68 52.6 33 56 C18.81 56 4.62 56 -10 56 C-9.31624828 48.47873103 -8.45050778 41.42155868 -6.93359375 34.08203125 C-6.73524429 33.09877365 -6.53689484 32.11551605 -6.33253479 31.10246277 C-5.70633276 28.00466789 -5.07206941 24.90859046 -4.4375 21.8125 C-4.00792611 19.6947704 -3.57888484 17.57693269 -3.15039062 15.45898438 C-2.10738774 10.30449235 -1.05346622 5.15240753 0 0 Z " fill="#FCFCFA" transform="translate(486,512)"/>
<path d="M0 0 C14.19 0 28.38 0 43 0 C42 7 42 7 41 10 C31.1 10 21.2 10 11 10 C10.67 13.3 10.34 16.6 10 20 C9.67 21.65 9.34 23.3 9 25 C17.25 25 25.5 25 34 25 C34 32 34 32 33 36 C24.09 36 15.18 36 6 36 C5.67 39.3 5.34 42.6 5 46 C4.43109926 49.36357373 3.71515869 52.6625928 3 56 C-1.62 56 -6.24 56 -11 56 C-10.35308621 49.35092866 -9.29357856 42.89287112 -7.96875 36.34765625 C-7.77277222 35.3663121 -7.57679443 34.38496796 -7.37487793 33.37388611 C-6.96320332 31.31716245 -6.54964343 29.26081531 -6.13427734 27.20483398 C-5.49714772 24.04836923 -4.86730465 20.89051093 -4.23828125 17.73242188 C-3.83636674 15.7290805 -3.43403788 13.72582221 -3.03125 11.72265625 C-2.84268433 10.77689224 -2.65411865 9.83112823 -2.45983887 8.85670471 C-2.28295532 7.98497116 -2.10607178 7.11323761 -1.92382812 6.21508789 C-1.76918091 5.44725479 -1.61453369 4.67942169 -1.4552002 3.88832092 C-1 2 -1 2 0 0 Z " fill="#FBFBF9" transform="translate(300,512)"/>
<path d="M0 0 C16.83 0 33.66 0 51 0 C51 0.66 51 1.32 51 2 C50.34 2 49.68 2 49 2 C48.78730469 2.53109375 48.57460938 3.0621875 48.35546875 3.609375 C46.47752402 6.92148502 43.91958177 9.50932368 41.3125 12.25 C40.21798673 13.41725351 39.12423255 14.58521929 38.03125 15.75390625 C37.5053125 16.31480957 36.979375 16.87571289 36.4375 17.45361328 C34.13378503 19.9318284 31.92067669 22.48461939 29.70703125 25.04296875 C26.91794645 28.24052364 24.06288369 31.37842245 21.21484375 34.5234375 C18.553296 37.49948913 15.97081929 40.53845257 13.41015625 43.6015625 C12 45 12 45 10 45 C3.07846755 29.65614976 0 17.15145865 0 0 Z " fill="#F9F9F7" transform="translate(348,374)"/>
<path d="M0 0 C16.5 0 33 0 50 0 C49 9 49 9 48 11 C42.06 11 36.12 11 30 11 C29.73316406 12.80984375 29.46632813 14.6196875 29.19140625 16.484375 C28.07318878 23.74736991 26.74182497 30.95787358 25.34057617 38.17041016 C24.93003537 40.28851226 24.52642185 42.4078666 24.12304688 44.52734375 C23.86239134 45.87768379 23.60133933 47.22794738 23.33984375 48.578125 C23.10644287 49.78887695 22.87304199 50.99962891 22.63256836 52.24707031 C22 55 22 55 21 56 C18.81360547 56.07258946 16.62499611 56.08373783 14.4375 56.0625 C12.64119141 56.04896484 12.64119141 56.04896484 10.80859375 56.03515625 C9.88175781 56.02355469 8.95492188 56.01195312 8 56 C8.68457571 46.45450765 10.64126529 37.23074206 12.5625 27.875 C12.8956321 26.23446627 13.22831805 24.59384189 13.56054688 22.953125 C14.367738 18.96749302 15.18404873 14.9838874 16 11 C10.39 11 4.78 11 -1 11 C-0.67 7.37 -0.34 3.74 0 0 Z " fill="#F8F8F6" transform="translate(371,512)"/>
<path d="M0 0 C4.62 0 9.24 0 14 0 C12.51360434 10.38142309 10.56077714 20.62833793 8.48608398 30.90576172 C7.93167147 33.65389105 7.38252962 36.40303789 6.83398438 39.15234375 C6.48207734 40.90631152 6.12987484 42.66022005 5.77734375 44.4140625 C5.61378891 45.23274811 5.45023407 46.05143372 5.28172302 46.89492798 C4.6533561 49.99777669 4.00221039 52.99336883 3 56 C-1.29 56 -5.58 56 -10 56 C-9.42665616 48.55181438 -8.44460663 41.39300622 -6.93359375 34.08203125 C-6.73524429 33.09877365 -6.53689484 32.11551605 -6.33253479 31.10246277 C-5.70633276 28.00466789 -5.07206941 24.90859046 -4.4375 21.8125 C-4.00792611 19.6947704 -3.57888484 17.57693269 -3.15039062 15.45898438 C-2.10640539 10.30472091 -1.05519416 5.15197991 0 0 Z " fill="#FAFAF9" transform="translate(351,512)"/>
<path d="M0 0 C1.6696582 0.05414063 1.6696582 0.05414063 3.37304688 0.109375 C6.10646097 0.20322613 8.83265413 0.33434241 11.5625 0.5 C7.8483319 5.61981766 3.97567617 10.41116365 -0.375 15 C-1.42913614 16.12690239 -2.48252513 17.25450415 -3.53515625 18.3828125 C-4.03547363 18.9180957 -4.53579102 19.45337891 -5.05126953 20.00488281 C-7.92361262 23.10284496 -10.68674668 26.29428748 -13.4375 29.5 C-14.01628906 30.17289062 -14.59507812 30.84578125 -15.19140625 31.5390625 C-16.60930487 33.19053607 -18.02379719 34.84493329 -19.4375 36.5 C-23.75480413 36.02590352 -25.77397461 33.46603297 -28.6875 30.4375 C-29.57953125 29.51839844 -30.4715625 28.59929687 -31.390625 27.65234375 C-32.06609375 26.94207031 -32.7415625 26.23179687 -33.4375 25.5 C-31.77693124 21.35361012 -28.77882688 18.43157215 -25.75 15.25 C-24.72411603 14.16253678 -23.69938942 13.07398066 -22.67578125 11.984375 C-22.14235107 11.43265625 -21.6089209 10.8809375 -21.05932617 10.3125 C-19.3727027 8.50228299 -19.3727027 8.50228299 -17.91918945 6.3125 C-12.89258847 -0.6137555 -8.18166298 -0.50498098 0 0 Z " fill="#FAFAF8" transform="translate(401.4375,408.5)"/>
<path d="M0 0 C4.29 0 8.58 0 13 0 C-8.90638298 47.90638298 -8.90638298 47.90638298 -17 56 C-19.01964199 56.07244053 -21.04167124 56.08377188 -23.0625 56.0625 C-24.16722656 56.05347656 -25.27195313 56.04445313 -26.41015625 56.03515625 C-27.69212891 56.01775391 -27.69212891 56.01775391 -29 56 C-27.56259516 51.21725316 -25.53459833 46.92469347 -23.18359375 42.5390625 C-22.8082399 41.83083344 -22.43288605 41.12260437 -22.04615784 40.39291382 C-21.25063402 38.89408951 -20.452894 37.39643964 -19.65307617 35.89990234 C-18.46098796 33.66895678 -17.27576784 31.43448067 -16.09179688 29.19921875 C-10.87711657 19.38052412 -5.49304207 9.66546015 0 0 Z " fill="#F9F9F8" transform="translate(248,512)"/>
<path d="M0 0 C1.12535156 0.13921875 2.25070312 0.2784375 3.41015625 0.421875 C5.12525391 0.58429688 5.12525391 0.58429688 6.875 0.75 C7.73222656 0.88921875 8.58945312 1.0284375 9.47265625 1.171875 C0.20968466 20.21562404 -9.88427028 38.86578862 -20.52734375 57.171875 C-24.81734375 57.171875 -29.10734375 57.171875 -33.52734375 57.171875 C-28.56782841 46.96763258 -23.31544243 36.92523311 -17.96484375 26.921875 C-17.6501413 26.33176636 -17.33543884 25.74165771 -17.01119995 25.13366699 C-15.4750483 22.25553525 -13.92536753 19.38613019 -12.35522461 16.52636719 C-11.11944132 14.2584812 -9.91780647 11.9717047 -8.74829102 9.66894531 C-4.40382292 1.46306409 -4.40382292 1.46306409 0 0 Z " fill="#F9F9F8" transform="translate(279.52734375,510.828125)"/>
<path d="M0 0 C13.93629542 -0.5582789 13.93629542 -0.5582789 19 3 C21 5 21 5 21.375 8.25 C20.93265115 12.67348853 19.88364963 14.64873151 17 18 C12.81404766 20.25222436 8.82726211 20.24043906 4.1875 20.125 C3.14819336 20.11146484 3.14819336 20.11146484 2.08789062 20.09765625 C0.39177605 20.07426157 -1.30415871 20.03839641 -3 20 C-3.15037323 15.08154219 -2.68080203 10.83490821 -1.5 6.0625 C-1.2215625 4.91910156 -0.943125 3.77570312 -0.65625 2.59765625 C-0.4396875 1.74042969 -0.223125 0.88320313 0 0 Z " fill="#202020" transform="translate(439,522)"/>
<path d="M0 0 C0.66 0 1.32 0 2 0 C2.67449966 2.39387157 3.33976641 4.78969221 4 7.1875 C4.19078125 7.86103516 4.3815625 8.53457031 4.578125 9.22851562 C5.62288591 13.0530868 6 15.96876157 6 20 C0.39 20 -5.22 20 -11 20 C-4.17167382 6.02575107 -4.17167382 6.02575107 0 0 Z " fill="#212121" transform="translate(561,526)"/>
</svg>
